STARTFONT 2.1
FONT -Monotype-Bembo-Medium-I-Normal--12-120-72-72-P-55-ISO8859-1
SIZE 12 72 72
FONTBOUNDINGBOX 17 15 -4 -3

STARTPROPERTIES 22
FOUNDRY "Monotype"
FAMILY_NAME "Bembo"
WEIGHT_NAME "Medium"
SLANT "I"
SETWIDTH_NAME "Normal"
ADD_STYLE_NAME ""
PIXEL_SIZE 12
POINT_SIZE 120
RESOLUTION_X 72
RESOLUTION_Y 72
SPACING "P"
AVERAGE_WIDTH 55
CHARSET_REGISTRY "ISO8859"
CHARSET_ENCODING "1"
FULL_NAME "Bembo-Italic"
COPYRIGHT "Copyright (c) 1991 The Monotype Corporation plc."
WEIGHT 10
X_HEIGHT 5
QUAD_WIDTH 7
DEFAULT_CHAR 32
FONT_DESCENT 3
FONT_ASCENT 10
ENDPROPERTIES

CHARS 190

STARTCHAR space
ENCODING 32
SWIDTH 278 0
DWIDTH 3 0
BBX 1 1 0 0
BITMAP
00
ENDCHAR

STARTCHAR exclam
ENCODING 33
SWIDTH 292 0
DWIDTH 4 0
BBX 2 8 1 0
BITMAP
40
40
40
40
40
40
00
80
ENDCHAR

STARTCHAR quotedbl
ENCODING 34
SWIDTH 417 0
DWIDTH 5 0
BBX 4 3 2 5
BITMAP
D0
A0
A0
ENDCHAR

STARTCHAR numbersign
ENCODING 35
SWIDTH 668 0
DWIDTH 8 0
BBX 7 8 1 0
BITMAP
24
24
FE
24
48
FE
48
48
ENDCHAR

STARTCHAR dollar
ENCODING 36
SWIDTH 458 0
DWIDTH 5 0
BBX 5 9 1 -1
BITMAP
10
70
70
58
60
E0
F0
60
40
ENDCHAR

STARTCHAR percent
ENCODING 37
SWIDTH 823 0
DWIDTH 10 0
BBX 9 8 1 0
BITMAP
6180
A200
A400
CB00
1A80
3280
6500
C300
ENDCHAR

STARTCHAR ampersand
ENCODING 38
SWIDTH 708 0
DWIDTH 8 0
BBX 8 8 1 0
BITMAP
38
44
40
61
8F
8A
C2
7C
ENDCHAR

STARTCHAR quoteright
ENCODING 39
SWIDTH 292 0
DWIDTH 4 0
BBX 2 3 2 5
BITMAP
40
40
80
ENDCHAR

STARTCHAR parenleft
ENCODING 40
SWIDTH 281 0
DWIDTH 3 0
BBX 4 11 1 -3
BITMAP
10
20
40
40
80
80
80
80
80
80
80
ENDCHAR

STARTCHAR parenright
ENCODING 41
SWIDTH 281 0
DWIDTH 3 0
BBX 4 11 0 -3
BITMAP
20
10
10
10
10
10
20
20
40
40
80
ENDCHAR

STARTCHAR asterisk
ENCODING 42
SWIDTH 500 0
DWIDTH 6 0
BBX 5 6 1 2
BITMAP
20
A0
78
60
90
10
ENDCHAR

STARTCHAR plus
ENCODING 43
SWIDTH 667 0
DWIDTH 8 0
BBX 7 7 0 1
BITMAP
10
10
10
FE
10
10
10
ENDCHAR

STARTCHAR comma
ENCODING 44
SWIDTH 292 0
DWIDTH 4 0
BBX 2 3 1 -2
BITMAP
40
40
80
ENDCHAR

STARTCHAR minus
ENCODING 45
SWIDTH 667 0
DWIDTH 8 0
BBX 6 1 1 4
BITMAP
FC
ENDCHAR

STARTCHAR period
ENCODING 46
SWIDTH 292 0
DWIDTH 4 0
BBX 1 1 2 0
BITMAP
80
ENDCHAR

STARTCHAR slash
ENCODING 47
SWIDTH 458 0
DWIDTH 4 0
BBX 5 11 0 -3
BITMAP
08
08
10
10
20
20
20
40
40
80
80
ENDCHAR

STARTCHAR zero
ENCODING 48
SWIDTH 510 0
DWIDTH 6 0
BBX 5 8 1 0
BITMAP
30
48
48
88
88
88
90
60
ENDCHAR

STARTCHAR one
ENCODING 49
SWIDTH 510 0
DWIDTH 6 0
BBX 3 8 2 0
BITMAP
60
A0
20
20
40
40
40
E0
ENDCHAR

STARTCHAR two
ENCODING 50
SWIDTH 510 0
DWIDTH 6 0
BBX 5 8 1 0
BITMAP
38
48
08
08
10
20
48
F0
ENDCHAR

STARTCHAR three
ENCODING 51
SWIDTH 510 0
DWIDTH 6 0
BBX 5 8 1 0
BITMAP
38
28
08
30
08
10
10
E0
ENDCHAR

STARTCHAR four
ENCODING 52
SWIDTH 510 0
DWIDTH 6 0
BBX 5 8 1 0
BITMAP
08
18
30
70
50
F8
10
20
ENDCHAR

STARTCHAR five
ENCODING 53
SWIDTH 510 0
DWIDTH 6 0
BBX 5 8 1 0
BITMAP
38
20
20
70
10
10
10
E0
ENDCHAR

STARTCHAR six
ENCODING 54
SWIDTH 510 0
DWIDTH 6 0
BBX 5 8 1 0
BITMAP
08
30
60
70
90
90
90
60
ENDCHAR

STARTCHAR seven
ENCODING 55
SWIDTH 510 0
DWIDTH 6 0
BBX 5 8 2 0
BITMAP
F8
90
10
20
20
60
40
C0
ENDCHAR

STARTCHAR eight
ENCODING 56
SWIDTH 510 0
DWIDTH 6 0
BBX 5 8 1 0
BITMAP
38
48
58
30
50
90
90
60
ENDCHAR

STARTCHAR nine
ENCODING 57
SWIDTH 510 0
DWIDTH 6 0
BBX 5 8 1 0
BITMAP
38
68
48
48
78
10
60
80
ENDCHAR

STARTCHAR colon
ENCODING 58
SWIDTH 292 0
DWIDTH 4 0
BBX 2 5 1 0
BITMAP
40
00
00
00
80
ENDCHAR

STARTCHAR semicolon
ENCODING 59
SWIDTH 292 0
DWIDTH 4 0
BBX 2 7 1 -2
BITMAP
40
00
00
00
40
40
80
ENDCHAR

STARTCHAR less
ENCODING 60
SWIDTH 667 0
DWIDTH 8 0
BBX 6 6 1 1
BITMAP
04
38
C0
C0
38
04
ENDCHAR

STARTCHAR equal
ENCODING 61
SWIDTH 667 0
DWIDTH 8 0
BBX 6 3 1 2
BITMAP
FC
00
FC
ENDCHAR

STARTCHAR greater
ENCODING 62
SWIDTH 667 0
DWIDTH 8 0
BBX 6 6 1 1
BITMAP
C0
70
0C
0C
70
C0
ENDCHAR

STARTCHAR question
ENCODING 63
SWIDTH 396 0
DWIDTH 5 0
BBX 4 8 1 0
BITMAP
60
20
30
20
40
40
00
80
ENDCHAR

STARTCHAR at
ENCODING 64
SWIDTH 917 0
DWIDTH 11 0
BBX 10 11 1 -3
BITMAP
1F00
2080
4140
8E40
9A40
9240
AE80
9B40
8040
6180
1E00
ENDCHAR

STARTCHAR A
ENCODING 65
SWIDTH 698 0
DWIDTH 8 0
BBX 8 8 0 0
BITMAP
02
06
0A
0A
1E
22
42
E7
ENDCHAR

STARTCHAR B
ENCODING 66
SWIDTH 615 0
DWIDTH 7 0
BBX 7 8 1 0
BITMAP
7C
22
22
3C
24
42
46
FC
ENDCHAR

STARTCHAR C
ENCODING 67
SWIDTH 729 0
DWIDTH 9 0
BBX 8 8 1 0
BITMAP
1F
61
41
80
80
82
46
3E
ENDCHAR

STARTCHAR D
ENCODING 68
SWIDTH 760 0
DWIDTH 9 0
BBX 9 8 0 0
BITMAP
7E00
2100
2080
2080
2080
4100
4300
FC00
ENDCHAR

STARTCHAR E
ENCODING 69
SWIDTH 625 0
DWIDTH 8 0
BBX 8 8 0 0
BITMAP
7F
32
20
3E
24
40
42
FE
ENDCHAR

STARTCHAR F
ENCODING 70
SWIDTH 563 0
DWIDTH 7 0
BBX 7 8 0 0
BITMAP
7E
22
20
3C
24
40
40
E0
ENDCHAR

STARTCHAR G
ENCODING 71
SWIDTH 781 0
DWIDTH 9 0
BBX 8 8 1 0
BITMAP
1E
61
41
80
80
83
42
3E
ENDCHAR

STARTCHAR H
ENCODING 72
SWIDTH 760 0
DWIDTH 9 0
BBX 10 8 0 0
BITMAP
79C0
3080
2100
3F00
2100
4100
4300
E780
ENDCHAR

STARTCHAR I
ENCODING 73
SWIDTH 323 0
DWIDTH 4 0
BBX 4 8 0 0
BITMAP
70
20
20
20
20
40
40
E0
ENDCHAR

STARTCHAR J
ENCODING 74
SWIDTH 302 0
DWIDTH 4 0
BBX 7 11 -1 -3
BITMAP
0E
04
08
08
08
08
08
08
10
10
E0
ENDCHAR

STARTCHAR K
ENCODING 75
SWIDTH 708 0
DWIDTH 8 0
BBX 9 8 0 0
BITMAP
3380
2200
2400
3800
2800
4C00
4600
E300
ENDCHAR

STARTCHAR L
ENCODING 76
SWIDTH 583 0
DWIDTH 7 0
BBX 7 8 0 0
BITMAP
78
20
20
20
20
40
42
FE
ENDCHAR

STARTCHAR M
ENCODING 77
SWIDTH 854 0
DWIDTH 10 0
BBX 11 8 0 0
BITMAP
3060
10C0
31C0
3980
4A80
4C80
4C80
C9C0
ENDCHAR

STARTCHAR N
ENCODING 78
SWIDTH 771 0
DWIDTH 9 0
BBX 10 8 0 0
BITMAP
61C0
3080
5080
4880
4480
4700
4300
E100
ENDCHAR

STARTCHAR O
ENCODING 79
SWIDTH 792 0
DWIDTH 10 0
BBX 8 8 1 0
BITMAP
3C
63
C1
81
81
81
46
3C
ENDCHAR

STARTCHAR P
ENCODING 80
SWIDTH 563 0
DWIDTH 7 0
BBX 7 8 1 0
BITMAP
7C
22
22
26
5C
40
40
E0
ENDCHAR

STARTCHAR Q
ENCODING 81
SWIDTH 792 0
DWIDTH 10 0
BBX 8 10 1 -2
BITMAP
3E
63
C1
81
81
81
46
3C
18
07
ENDCHAR

STARTCHAR R
ENCODING 82
SWIDTH 698 0
DWIDTH 8 0
BBX 8 8 0 0
BITMAP
7C
22
22
26
3C
28
44
E3
ENDCHAR

STARTCHAR S
ENCODING 83
SWIDTH 531 0
DWIDTH 6 0
BBX 6 8 1 0
BITMAP
3C
44
44
30
18
88
88
70
ENDCHAR

STARTCHAR T
ENCODING 84
SWIDTH 656 0
DWIDTH 8 0
BBX 8 8 1 0
BITMAP
FF
92
10
10
10
20
20
70
ENDCHAR

STARTCHAR U
ENCODING 85
SWIDTH 729 0
DWIDTH 9 0
BBX 8 8 1 0
BITMAP
E3
42
42
42
82
84
C4
78
ENDCHAR

STARTCHAR V
ENCODING 86
SWIDTH 698 0
DWIDTH 8 0
BBX 8 8 2 0
BITMAP
E3
42
44
4C
50
50
60
40
ENDCHAR

STARTCHAR W
ENCODING 87
SWIDTH 958 0
DWIDTH 11 0
BBX 11 8 2 0
BITMAP
EE60
4440
4440
4C80
5500
6500
6600
4400
ENDCHAR

STARTCHAR X
ENCODING 88
SWIDTH 688 0
DWIDTH 8 0
BBX 9 8 0 0
BITMAP
7B80
1100
1A00
0C00
1400
2600
4200
E700
ENDCHAR

STARTCHAR Y
ENCODING 89
SWIDTH 625 0
DWIDTH 8 0
BBX 7 8 1 0
BITMAP
E6
42
44
38
30
20
20
70
ENDCHAR

STARTCHAR Z
ENCODING 90
SWIDTH 688 0
DWIDTH 8 0
BBX 8 8 1 0
BITMAP
3F
22
64
08
10
23
42
FE
ENDCHAR

STARTCHAR bracketleft
ENCODING 91
SWIDTH 302 0
DWIDTH 4 0
BBX 4 11 1 -3
BITMAP
30
20
60
40
40
40
40
80
80
80
C0
ENDCHAR

STARTCHAR backslash
ENCODING 92
SWIDTH 219 0
DWIDTH 3 0
BBX 2 8 1 0
BITMAP
80
80
80
80
40
40
40
40
ENDCHAR

STARTCHAR bracketright
ENCODING 93
SWIDTH 302 0
DWIDTH 4 0
BBX 5 11 0 -3
BITMAP
38
10
10
10
10
10
20
20
20
20
E0
ENDCHAR

STARTCHAR asciicircum
ENCODING 94
SWIDTH 427 0
DWIDTH 5 0
BBX 5 4 1 4
BITMAP
20
70
50
88
ENDCHAR

STARTCHAR underscore
ENCODING 95
SWIDTH 500 0
DWIDTH 6 0
BBX 6 1 0 -3
BITMAP
FC
ENDCHAR

STARTCHAR quoteleft
ENCODING 96
SWIDTH 292 0
DWIDTH 4 0
BBX 2 3 2 5
BITMAP
40
80
80
ENDCHAR

STARTCHAR a
ENCODING 97
SWIDTH 406 0
DWIDTH 5 0
BBX 5 5 1 0
BITMAP
70
90
90
A8
F0
ENDCHAR

STARTCHAR b
ENCODING 98
SWIDTH 406 0
DWIDTH 5 0
BBX 4 8 1 0
BITMAP
40
40
40
70
D0
90
A0
C0
ENDCHAR

STARTCHAR c
ENCODING 99
SWIDTH 271 0
DWIDTH 3 0
BBX 3 5 0 0
BITMAP
60
80
80
A0
C0
ENDCHAR

STARTCHAR d
ENCODING 100
SWIDTH 438 0
DWIDTH 5 0
BBX 5 8 1 0
BITMAP
08
10
10
70
50
B0
A8
F0
ENDCHAR

STARTCHAR e
ENCODING 101
SWIDTH 344 0
DWIDTH 4 0
BBX 4 5 1 0
BITMAP
70
60
C0
90
E0
ENDCHAR

STARTCHAR f
ENCODING 102
SWIDTH 229 0
DWIDTH 3 0
BBX 7 11 -1 -3
BITMAP
06
08
08
1C
10
10
10
10
10
20
C0
ENDCHAR

STARTCHAR g
ENCODING 103
SWIDTH 375 0
DWIDTH 5 0
BBX 6 8 0 -3
BITMAP
1C
28
28
28
30
60
D8
F0
ENDCHAR

STARTCHAR h
ENCODING 104
SWIDTH 458 0
DWIDTH 5 0
BBX 5 8 1 0
BITMAP
40
40
40
50
70
50
90
98
ENDCHAR

STARTCHAR i
ENCODING 105
SWIDTH 240 0
DWIDTH 3 0
BBX 3 8 2 0
BITMAP
20
00
00
E0
40
40
60
40
ENDCHAR

STARTCHAR j
ENCODING 106
SWIDTH 240 0
DWIDTH 3 0
BBX 5 11 -1 -3
BITMAP
08
00
00
10
30
10
10
10
20
20
C0
ENDCHAR

STARTCHAR k
ENCODING 107
SWIDTH 458 0
DWIDTH 5 0
BBX 5 8 1 0
BITMAP
40
40
40
78
48
70
A0
B8
ENDCHAR

STARTCHAR l
ENCODING 108
SWIDTH 229 0
DWIDTH 3 0
BBX 2 8 1 0
BITMAP
40
C0
40
80
80
80
C0
80
ENDCHAR

STARTCHAR m
ENCODING 109
SWIDTH 677 0
DWIDTH 8 0
BBX 9 5 2 0
BITMAP
2900
FF00
2D00
4900
4B80
ENDCHAR

STARTCHAR n
ENCODING 110
SWIDTH 469 0
DWIDTH 6 0
BBX 6 5 2 0
BITMAP
28
FC
28
4C
48
ENDCHAR

STARTCHAR o
ENCODING 111
SWIDTH 396 0
DWIDTH 5 0
BBX 4 5 1 0
BITMAP
70
90
90
90
E0
ENDCHAR

STARTCHAR p
ENCODING 112
SWIDTH 438 0
DWIDTH 5 0
BBX 6 8 0 -3
BITMAP
2C
74
24
28
30
40
40
E0
ENDCHAR

STARTCHAR q
ENCODING 113
SWIDTH 417 0
DWIDTH 5 0
BBX 4 8 1 -3
BITMAP
70
90
90
A0
E0
20
20
70
ENDCHAR

STARTCHAR r
ENCODING 114
SWIDTH 271 0
DWIDTH 3 0
BBX 4 5 2 0
BITMAP
30
D0
60
40
40
ENDCHAR

STARTCHAR s
ENCODING 115
SWIDTH 302 0
DWIDTH 4 0
BBX 3 5 0 0
BITMAP
60
40
40
20
C0
ENDCHAR

STARTCHAR t
ENCODING 116
SWIDTH 260 0
DWIDTH 3 0
BBX 3 6 1 0
BITMAP
20
E0
80
80
C0
80
ENDCHAR

STARTCHAR u
ENCODING 117
SWIDTH 469 0
DWIDTH 6 0
BBX 6 5 2 0
BITMAP
E4
48
48
5C
68
ENDCHAR

STARTCHAR v
ENCODING 118
SWIDTH 406 0
DWIDTH 5 0
BBX 6 5 1 0
BITMAP
28
EC
28
70
20
ENDCHAR

STARTCHAR w
ENCODING 119
SWIDTH 604 0
DWIDTH 7 0
BBX 8 5 1 0
BITMAP
25
E9
29
3A
2C
ENDCHAR

STARTCHAR x
ENCODING 120
SWIDTH 490 0
DWIDTH 6 0
BBX 6 5 0 0
BITMAP
6C
F0
20
F4
D8
ENDCHAR

STARTCHAR y
ENCODING 121
SWIDTH 438 0
DWIDTH 5 0
BBX 5 8 0 -3
BITMAP
48
A8
30
20
20
40
40
E0
ENDCHAR

STARTCHAR z
ENCODING 122
SWIDTH 500 0
DWIDTH 6 0
BBX 7 5 1 0
BITMAP
3E
08
20
72
8C
ENDCHAR

STARTCHAR braceleft
ENCODING 123
SWIDTH 396 0
DWIDTH 5 0
BBX 5 11 1 -3
BITMAP
18
20
20
20
C0
40
40
40
80
80
C0
ENDCHAR

STARTCHAR bar
ENCODING 124
SWIDTH 510 0
DWIDTH 7 0
BBX 4 11 2 -3
BITMAP
10
20
20
20
20
40
40
40
40
80
80
ENDCHAR

STARTCHAR braceright
ENCODING 125
SWIDTH 396 0
DWIDTH 5 0
BBX 5 11 0 -3
BITMAP
08
08
08
10
10
18
20
20
20
60
C0
ENDCHAR

STARTCHAR asciitilde
ENCODING 126
SWIDTH 542 0
DWIDTH 7 0
BBX 8 2 2 5
BITMAP
71
8E
ENDCHAR

STARTCHAR exclamdown
ENCODING 161
SWIDTH 292 0
DWIDTH 4 0
BBX 2 8 1 -3
BITMAP
40
00
40
40
40
40
80
80
ENDCHAR

STARTCHAR cent
ENCODING 162
SWIDTH 271 0
DWIDTH 3 0
BBX 3 11 0 -3
BITMAP
20
20
20
60
C0
C0
C0
E0
80
80
80
ENDCHAR

STARTCHAR sterling
ENCODING 163
SWIDTH 729 0
DWIDTH 9 0
BBX 9 11 1 -3
BITMAP
0380
0400
0400
0800
0800
1000
1000
7800
2200
7200
8E00
ENDCHAR

STARTCHAR currency
ENCODING 164
SWIDTH 667 0
DWIDTH 8 0
BBX 5 6 2 1
BITMAP
F8
D8
88
88
D8
F8
ENDCHAR

STARTCHAR yen
ENCODING 165
SWIDTH 500 0
DWIDTH 6 0
BBX 7 8 0 0
BITMAP
76
7E
FC
10
20
20
20
70
ENDCHAR

STARTCHAR brokenbar
ENCODING 166
SWIDTH 510 0
DWIDTH 7 0
BBX 4 11 2 -3
BITMAP
10
20
20
20
20
00
40
40
40
80
80
ENDCHAR

STARTCHAR section
ENCODING 167
SWIDTH 479 0
DWIDTH 6 0
BBX 7 11 0 -3
BITMAP
0E
10
30
28
28
28
28
18
18
10
E0
ENDCHAR

STARTCHAR dieresis
ENCODING 168
SWIDTH 333 0
DWIDTH 4 0
BBX 3 1 2 6
BITMAP
A0
ENDCHAR

STARTCHAR copyright
ENCODING 169
SWIDTH 760 0
DWIDTH 9 0
BBX 9 8 1 0
BITMAP
3E00
7300
A080
A080
A080
B280
7F00
3E00
ENDCHAR

STARTCHAR ordfeminine
ENCODING 170
SWIDTH 260 0
DWIDTH 3 0
BBX 3 4 1 4
BITMAP
60
C0
C0
E0
ENDCHAR

STARTCHAR guillemotleft
ENCODING 171
SWIDTH 438 0
DWIDTH 5 0
BBX 4 4 1 1
BITMAP
50
50
50
E0
ENDCHAR

STARTCHAR logicalnot
ENCODING 172
SWIDTH 667 0
DWIDTH 8 0
BBX 6 4 1 2
BITMAP
FC
04
04
04
ENDCHAR

STARTCHAR hyphen
ENCODING 173
SWIDTH 333 0
DWIDTH 4 0
BBX 3 1 1 2
BITMAP
E0
ENDCHAR

STARTCHAR registered
ENCODING 174
SWIDTH 760 0
DWIDTH 9 0
BBX 9 8 1 0
BITMAP
3E00
7F00
9480
9C80
9480
BA80
6300
3E00
ENDCHAR

STARTCHAR macron
ENCODING 175
SWIDTH 333 0
DWIDTH 4 0
BBX 3 1 1 7
BITMAP
E0
ENDCHAR

STARTCHAR degree
ENCODING 176
SWIDTH 396 0
DWIDTH 5 0
BBX 4 4 1 4
BITMAP
60
90
90
60
ENDCHAR

STARTCHAR plusminus
ENCODING 177
SWIDTH 667 0
DWIDTH 8 0
BBX 7 8 0 0
BITMAP
10
10
10
FE
10
10
00
FE
ENDCHAR

STARTCHAR twosuperior
ENCODING 178
SWIDTH 313 0
DWIDTH 4 0
BBX 3 5 -4 3
BITMAP
60
60
20
60
E0
ENDCHAR

STARTCHAR threesuperior
ENCODING 179
SWIDTH 313 0
DWIDTH 4 0
BBX 3 5 -4 3
BITMAP
60
60
60
20
C0
ENDCHAR

STARTCHAR acute
ENCODING 180
SWIDTH 333 0
DWIDTH 4 0
BBX 2 3 2 5
BITMAP
40
80
80
ENDCHAR

STARTCHAR mu
ENCODING 181
SWIDTH 500 0
DWIDTH 6 0
BBX 6 8 0 -3
BITMAP
24
24
2C
4C
BC
80
80
80
ENDCHAR

STARTCHAR paragraph
ENCODING 182
SWIDTH 448 0
DWIDTH 6 0
BBX 6 11 1 -3
BITMAP
3C
74
F8
E8
E8
30
30
50
50
60
A0
ENDCHAR

STARTCHAR periodcentered
ENCODING 183
SWIDTH 292 0
DWIDTH 4 0
BBX 1 1 2 3
BITMAP
80
ENDCHAR

STARTCHAR cedilla
ENCODING 184
SWIDTH 333 0
DWIDTH 4 0
BBX 2 3 1 -3
BITMAP
40
40
C0
ENDCHAR

STARTCHAR onesuperior
ENCODING 185
SWIDTH 313 0
DWIDTH 4 0
BBX 2 5 -4 3
BITMAP
40
C0
40
80
C0
ENDCHAR

STARTCHAR ordmasculine
ENCODING 186
SWIDTH 260 0
DWIDTH 3 0
BBX 3 4 1 4
BITMAP
40
A0
A0
C0
ENDCHAR

STARTCHAR guillemotright
ENCODING 187
SWIDTH 438 0
DWIDTH 5 0
BBX 4 5 1 0
BITMAP
70
E0
A0
A0
40
ENDCHAR

STARTCHAR onequarter
ENCODING 188
SWIDTH 823 0
DWIDTH 10 0
BBX 9 8 3 0
BITMAP
4080
C100
4200
8480
C980
1180
2380
4100
ENDCHAR

STARTCHAR onehalf
ENCODING 189
SWIDTH 823 0
DWIDTH 10 0
BBX 9 8 3 0
BITMAP
4080
C100
4200
8700
CB00
1100
2300
4700
ENDCHAR

STARTCHAR threequarters
ENCODING 190
SWIDTH 823 0
DWIDTH 10 0
BBX 9 8 3 0
BITMAP
6080
6100
6200
2480
C980
1180
2380
4100
ENDCHAR

STARTCHAR questiondown
ENCODING 191
SWIDTH 396 0
DWIDTH 5 0
BBX 4 8 1 -3
BITMAP
10
20
20
20
C0
80
80
60
ENDCHAR

STARTCHAR Agrave
ENCODING 192
SWIDTH 698 0
DWIDTH 8 0
BBX 8 12 0 0
BITMAP
04
04
02
00
02
06
0A
0A
1E
22
42
E7
ENDCHAR

STARTCHAR Aacute
ENCODING 193
SWIDTH 698 0
DWIDTH 8 0
BBX 8 12 0 0
BITMAP
01
02
02
00
02
06
0A
0A
1E
22
42
E7
ENDCHAR

STARTCHAR Acircumflex
ENCODING 194
SWIDTH 698 0
DWIDTH 8 0
BBX 8 12 0 0
BITMAP
03
03
05
00
02
06
0A
0A
1E
22
42
E7
ENDCHAR

STARTCHAR Atilde
ENCODING 195
SWIDTH 698 0
DWIDTH 8 0
BBX 9 11 0 0
BITMAP
0780
0500
0000
0200
0600
0A00
0A00
1E00
2200
4200
E700
ENDCHAR

STARTCHAR Adieresis
ENCODING 196
SWIDTH 698 0
DWIDTH 8 0
BBX 8 10 0 0
BITMAP
05
00
02
06
0A
0A
1E
22
42
E7
ENDCHAR

STARTCHAR Aring
ENCODING 197
SWIDTH 698 0
DWIDTH 8 0
BBX 8 12 0 0
BITMAP
07
05
07
00
02
06
0A
0A
1E
22
42
E7
ENDCHAR

STARTCHAR AE
ENCODING 198
SWIDTH 948 0
DWIDTH 11 0
BBX 12 8 0 0
BITMAP
07F0
0720
0A00
13E0
1E40
2200
4420
EFE0
ENDCHAR

STARTCHAR Ccedilla
ENCODING 199
SWIDTH 729 0
DWIDTH 9 0
BBX 8 11 1 -3
BITMAP
1F
61
41
80
80
82
46
3E
10
10
30
ENDCHAR

STARTCHAR Egrave
ENCODING 200
SWIDTH 625 0
DWIDTH 8 0
BBX 8 12 0 0
BITMAP
04
04
02
00
7F
32
20
3E
24
40
42
FE
ENDCHAR

STARTCHAR Eacute
ENCODING 201
SWIDTH 625 0
DWIDTH 8 0
BBX 8 12 0 0
BITMAP
02
04
04
00
7F
32
20
3E
24
40
42
FE
ENDCHAR

STARTCHAR Ecircumflex
ENCODING 202
SWIDTH 625 0
DWIDTH 8 0
BBX 8 12 0 0
BITMAP
06
06
0A
00
7F
32
20
3E
24
40
42
FE
ENDCHAR

STARTCHAR Edieresis
ENCODING 203
SWIDTH 625 0
DWIDTH 8 0
BBX 8 10 0 0
BITMAP
0A
00
7F
32
20
3E
24
40
42
FE
ENDCHAR

STARTCHAR Igrave
ENCODING 204
SWIDTH 323 0
DWIDTH 4 0
BBX 5 12 0 0
BITMAP
10
10
08
00
70
20
20
20
20
40
40
E0
ENDCHAR

STARTCHAR Iacute
ENCODING 205
SWIDTH 323 0
DWIDTH 4 0
BBX 5 12 0 0
BITMAP
08
10
10
00
70
20
20
20
20
40
40
E0
ENDCHAR

STARTCHAR Icircumflex
ENCODING 206
SWIDTH 323 0
DWIDTH 4 0
BBX 5 12 0 0
BITMAP
18
18
28
00
70
20
20
20
20
40
40
E0
ENDCHAR

STARTCHAR Idieresis
ENCODING 207
SWIDTH 323 0
DWIDTH 4 0
BBX 5 10 0 0
BITMAP
28
00
70
20
20
20
20
40
40
E0
ENDCHAR

STARTCHAR Eth
ENCODING 208
SWIDTH 760 0
DWIDTH 9 0
BBX 9 8 0 0
BITMAP
7E00
2100
2080
F880
2080
4100
4300
FC00
ENDCHAR

STARTCHAR Ntilde
ENCODING 209
SWIDTH 771 0
DWIDTH 9 0
BBX 10 11 0 0
BITMAP
0780
0500
0000
61C0
3080
5080
4880
4480
4700
4300
E100
ENDCHAR

STARTCHAR Ograve
ENCODING 210
SWIDTH 792 0
DWIDTH 10 0
BBX 8 12 1 0
BITMAP
04
04
02
00
3C
63
C1
81
81
81
46
3C
ENDCHAR

STARTCHAR Oacute
ENCODING 211
SWIDTH 792 0
DWIDTH 10 0
BBX 8 12 1 0
BITMAP
02
04
04
00
3C
63
C1
81
81
81
46
3C
ENDCHAR

STARTCHAR Ocircumflex
ENCODING 212
SWIDTH 792 0
DWIDTH 10 0
BBX 8 12 1 0
BITMAP
06
06
0A
00
3C
63
C1
81
81
81
46
3C
ENDCHAR

STARTCHAR Otilde
ENCODING 213
SWIDTH 792 0
DWIDTH 10 0
BBX 8 11 1 0
BITMAP
0F
0A
00
3C
63
C1
81
81
81
46
3C
ENDCHAR

STARTCHAR Odieresis
ENCODING 214
SWIDTH 792 0
DWIDTH 10 0
BBX 8 10 1 0
BITMAP
0A
00
3C
63
C1
81
81
81
46
3C
ENDCHAR

STARTCHAR multiply
ENCODING 215
SWIDTH 668 0
DWIDTH 8 0
BBX 6 5 1 1
BITMAP
8C
78
30
78
8C
ENDCHAR

STARTCHAR Oslash
ENCODING 216
SWIDTH 792 0
DWIDTH 10 0
BBX 8 9 1 0
BITMAP
03
3E
67
C9
91
A1
A1
46
BC
ENDCHAR

STARTCHAR Ugrave
ENCODING 217
SWIDTH 729 0
DWIDTH 9 0
BBX 8 12 1 0
BITMAP
08
08
04
00
E3
42
42
42
82
84
C4
78
ENDCHAR

STARTCHAR Uacute
ENCODING 218
SWIDTH 729 0
DWIDTH 9 0
BBX 8 12 1 0
BITMAP
04
08
08
00
E3
42
42
42
82
84
C4
78
ENDCHAR

STARTCHAR Ucircumflex
ENCODING 219
SWIDTH 729 0
DWIDTH 9 0
BBX 8 12 1 0
BITMAP
06
06
0A
00
E3
42
42
42
82
84
C4
78
ENDCHAR

STARTCHAR Udieresis
ENCODING 220
SWIDTH 729 0
DWIDTH 9 0
BBX 8 10 1 0
BITMAP
0A
00
E3
42
42
42
82
84
C4
78
ENDCHAR

STARTCHAR Yacute
ENCODING 221
SWIDTH 625 0
DWIDTH 8 0
BBX 7 12 1 0
BITMAP
04
08
08
00
E6
42
44
38
30
20
20
70
ENDCHAR

STARTCHAR Thorn
ENCODING 222
SWIDTH 563 0
DWIDTH 7 0
BBX 7 8 1 0
BITMAP
70
20
3C
24
26
44
58
E0
ENDCHAR

STARTCHAR germandbls
ENCODING 223
SWIDTH 438 0
DWIDTH 5 0
BBX 8 11 -1 -3
BITMAP
07
09
09
16
12
12
12
1C
10
20
C0
ENDCHAR

STARTCHAR agrave
ENCODING 224
SWIDTH 406 0
DWIDTH 5 0
BBX 5 9 1 0
BITMAP
20
20
10
00
70
90
90
A8
F0
ENDCHAR

STARTCHAR aacute
ENCODING 225
SWIDTH 406 0
DWIDTH 5 0
BBX 5 9 1 0
BITMAP
10
20
20
00
70
90
90
A8
F0
ENDCHAR

STARTCHAR acircumflex
ENCODING 226
SWIDTH 406 0
DWIDTH 5 0
BBX 5 9 1 0
BITMAP
30
30
50
00
70
90
90
A8
F0
ENDCHAR

STARTCHAR atilde
ENCODING 227
SWIDTH 406 0
DWIDTH 5 0
BBX 5 8 1 0
BITMAP
78
50
00
70
90
90
A8
F0
ENDCHAR

STARTCHAR adieresis
ENCODING 228
SWIDTH 406 0
DWIDTH 5 0
BBX 5 7 1 0
BITMAP
28
00
70
90
90
A8
F0
ENDCHAR

STARTCHAR aring
ENCODING 229
SWIDTH 406 0
DWIDTH 5 0
BBX 5 9 1 0
BITMAP
70
50
70
00
70
90
90
A8
F0
ENDCHAR

STARTCHAR ae
ENCODING 230
SWIDTH 573 0
DWIDTH 7 0
BBX 7 5 0 0
BITMAP
7E
94
98
B0
DC
ENDCHAR

STARTCHAR ccedilla
ENCODING 231
SWIDTH 271 0
DWIDTH 3 0
BBX 3 8 0 -3
BITMAP
60
80
80
A0
C0
40
40
C0
ENDCHAR

STARTCHAR egrave
ENCODING 232
SWIDTH 344 0
DWIDTH 4 0
BBX 4 9 1 0
BITMAP
40
40
20
00
70
60
C0
90
E0
ENDCHAR

STARTCHAR eacute
ENCODING 233
SWIDTH 344 0
DWIDTH 4 0
BBX 4 9 1 0
BITMAP
10
20
20
00
70
60
C0
90
E0
ENDCHAR

STARTCHAR ecircumflex
ENCODING 234
SWIDTH 344 0
DWIDTH 4 0
BBX 4 9 1 0
BITMAP
30
30
50
00
70
60
C0
90
E0
ENDCHAR

STARTCHAR edieresis
ENCODING 235
SWIDTH 344 0
DWIDTH 4 0
BBX 4 7 1 0
BITMAP
50
00
70
60
C0
90
E0
ENDCHAR

STARTCHAR igrave
ENCODING 236
SWIDTH 240 0
DWIDTH 3 0
BBX 4 9 2 0
BITMAP
20
20
10
00
20
C0
40
60
40
ENDCHAR

STARTCHAR iacute
ENCODING 237
SWIDTH 240 0
DWIDTH 3 0
BBX 4 9 2 0
BITMAP
10
20
20
00
20
C0
40
60
40
ENDCHAR

STARTCHAR icircumflex
ENCODING 238
SWIDTH 240 0
DWIDTH 3 0
BBX 4 9 2 0
BITMAP
30
30
50
00
20
C0
40
60
40
ENDCHAR

STARTCHAR idieresis
ENCODING 239
SWIDTH 240 0
DWIDTH 3 0
BBX 4 7 2 0
BITMAP
50
00
20
C0
40
60
40
ENDCHAR

STARTCHAR eth
ENCODING 240
SWIDTH 417 0
DWIDTH 5 0
BBX 4 8 1 0
BITMAP
20
10
30
70
90
90
90
E0
ENDCHAR

STARTCHAR ntilde
ENCODING 241
SWIDTH 469 0
DWIDTH 6 0
BBX 7 8 2 0
BITMAP
1E
14
00
28
FC
28
4C
48
ENDCHAR

STARTCHAR ograve
ENCODING 242
SWIDTH 396 0
DWIDTH 5 0
BBX 4 9 1 0
BITMAP
20
20
10
00
70
90
90
90
E0
ENDCHAR

STARTCHAR oacute
ENCODING 243
SWIDTH 396 0
DWIDTH 5 0
BBX 4 9 1 0
BITMAP
10
20
20
00
70
90
90
90
E0
ENDCHAR

STARTCHAR ocircumflex
ENCODING 244
SWIDTH 396 0
DWIDTH 5 0
BBX 4 9 1 0
BITMAP
30
30
50
00
70
90
90
90
E0
ENDCHAR

STARTCHAR otilde
ENCODING 245
SWIDTH 396 0
DWIDTH 5 0
BBX 5 8 1 0
BITMAP
78
50
00
70
90
90
90
E0
ENDCHAR

STARTCHAR odieresis
ENCODING 246
SWIDTH 396 0
DWIDTH 5 0
BBX 4 7 1 0
BITMAP
50
00
70
90
90
90
E0
ENDCHAR

STARTCHAR divide
ENCODING 247
SWIDTH 668 0
DWIDTH 8 0
BBX 6 7 1 1
BITMAP
10
00
00
FC
00
00
10
ENDCHAR

STARTCHAR oslash
ENCODING 248
SWIDTH 396 0
DWIDTH 5 0
BBX 5 5 1 0
BITMAP
78
90
B0
D0
E0
ENDCHAR

STARTCHAR ugrave
ENCODING 249
SWIDTH 469 0
DWIDTH 6 0
BBX 6 9 2 0
BITMAP
10
10
08
00
E4
48
48
5C
68
ENDCHAR

STARTCHAR uacute
ENCODING 250
SWIDTH 469 0
DWIDTH 6 0
BBX 6 9 2 0
BITMAP
08
10
10
00
E4
48
48
5C
68
ENDCHAR

STARTCHAR ucircumflex
ENCODING 251
SWIDTH 469 0
DWIDTH 6 0
BBX 6 9 2 0
BITMAP
0C
0C
14
00
E4
48
48
5C
68
ENDCHAR

STARTCHAR udieresis
ENCODING 252
SWIDTH 469 0
DWIDTH 6 0
BBX 6 7 2 0
BITMAP
14
00
E4
48
48
5C
68
ENDCHAR

STARTCHAR yacute
ENCODING 253
SWIDTH 438 0
DWIDTH 5 0
BBX 5 12 0 -3
BITMAP
08
10
10
00
48
A8
30
20
20
40
40
E0
ENDCHAR

STARTCHAR thorn
ENCODING 254
SWIDTH 438 0
DWIDTH 5 0
BBX 6 11 0 -3
BITMAP
10
70
20
2C
34
24
28
30
40
40
E0
ENDCHAR

STARTCHAR ydieresis
ENCODING 255
SWIDTH 438 0
DWIDTH 5 0
BBX 5 10 0 -3
BITMAP
28
00
48
A8
30
20
20
40
40
E0
ENDCHAR
ENDFONT
